# xmcd
# 
# Track frame offsets:
#     150
#     39863
#     55526
#     89967
#     125171
#     153275
#     167408
#     222159
#     251134
#     275500
#     310839
# 
# Disc length: 4368
# 
# Revision: 0
# Processed by: cddbd v1.5.2PL0 Copyright (c) Steve Scherf et al.
# Submitted via: fre:ac v1.0.17
# 
DISCID=96110e0b
DTITLE=Jimi Hendrix - Blues
DYEAR=0
DGENRE=Blues
TTITLE0=Voodoo Chile Blues
TTITLE1=Bleeding Heart
TTITLE2=Born Under a Bad Sign
TTITLE3=Catfish Blues
TTITLE4=Electric Church Red House
TTITLE5=Hear My Train a Comin' [Acoust
TTITLE6=Hear My Train a Comin' [Electr
TTITLE7=Jelly 292
TTITLE8=Mannish Boy
TTITLE9=Once I Had a Woman
TTITLE10=Red House
EXTD=
EXTT0=
EXTT1=
EXTT2=
EXTT3=
EXTT4=
EXTT5=
EXTT6=
EXTT7=
EXTT8=
EXTT9=
EXTT10=
PLAYORDER=
